<svg xmlns="http://www.w3.org/2000/svg" width="18" height="18" viewBox="0 0 48 48">
  <path fill="#EA4335" d="M24 9.5c3.54 0 6.67 1.2 9.18 3.15l6.83-6.83C35.54 2.68 30.14 0 24 0 14.64 0 6.61 5.75 2.6 14.12l7.98 6.21C12.43 13.31 17.78 9.5 24 9.5z"/>
  <path fill="#4285F4" d="M46.4 24.55c0-1.65-.15-3.23-.43-4.76H24v9.02h12.65c-.55 2.87-2.24 5.3-4.77 6.92l7.43 5.78C43.88 37.44 46.4 31.51 46.4 24.55z"/>
  <path fill="#FBBC05" d="M10.58 28.33A14.47 14.47 0 0 1 9.5 24c0-1.5.25-2.95.71-4.33L2.23 13.4A24 24 0 0 0 0 24c0 3.77.9 7.33 2.48 10.48l8.1-6.15z"/>
  <path fill="#34A853" d="M24 48c6.14 0 11.33-2.03 15.1-5.5l-7.43-5.78c-2.06 1.37-4.7 2.18-7.67 2.18-6.2 0-11.44-4.11-13.31-9.65l-8.1 6.15C6.61 42.25 14.64 48 24 48z"/>
</svg>
